# xmcd CD database file
# Copyright (C) 1995-1998 Ti Kan
#
# Track frame offsets:
#	150
#	14920
#	32217
#	44812
#	57795
#	70622
#	82847
#	95182
#	105887
#	118172
#	135100
#	145995
#	158370
#	171380
#
# Disc length: 2692 seconds
#
# Revision: 1
# Processed by: cddbd v1.4b41PL1 Copyright (c) Steve Scherf et al.
# Submitted via: CDex 1.30Release
#
DISCID=b90a820e
DTITLE=Kirsten Siggaard - Mit Liv Med Patsy Cline
DYEAR=1999
DGENRE=Country
TTITLE0=Crazy
TTITLE1=Faded Love
TTITLE2=Seven Lonely Days
TTITLE3=True Love
TTITLE4=Your Cheatin' Heart
TTITLE5=Walking After Midnight
TTITLE6=Always
TTITLE7=San Antonio Rose
TTITLE8=Sweet Dreams
TTITLE9=She's Got You
TTITLE10=Lovesick Blues
TTITLE11=Three Cigarettes In An Ashtray
TTITLE12=I Fall To Pieces
TTITLE13=Medley
EXTD=YEAR: 1999 ID3G:   2
EXTT0=
EXTT1=
EXTT2=
EXTT3=
EXTT4=
EXTT5=
EXTT6=
EXTT7=
EXTT8=
EXTT9=
EXTT10=
EXTT11=
EXTT12=
EXTT13=
PLAYORDER=
